<svg xmlns="http://www.w3.org/2000/svg" viewBox="0 0 1200 76" width="1200" height="76" role="img" aria-label="More">
  <defs>
    <linearGradient id="bg" x1="0" y1="0" x2="1" y2="1"><stop offset="0" stop-color="#060a15"/><stop offset="1" stop-color="#0e1733"/></linearGradient>
    <linearGradient id="bar" x1="0" y1="0" x2="0" y2="1"><stop offset="0" stop-color="#5eead4"/><stop offset="1" stop-color="#818cf8"/></linearGradient>
    <filter id="b" x="-10%" y="-40%" width="120%" height="180%"><feGaussianBlur stdDeviation="0.8"/></filter>
    <clipPath id="r"><rect width="1200" height="76" rx="14"/></clipPath>
  </defs>
  <g clip-path="url(#r)">
    <rect width="1200" height="76" fill="url(#bg)"/>
    <rect x="0" y="0" width="5" height="76" fill="url(#bar)"/>
    <g filter="url(#b)"><ellipse cx="1067" cy="52" rx="6.7" ry="3.0" fill="#e8915a" opacity="0.50" transform="rotate(4 1067 52)"/><ellipse cx="1049" cy="40" rx="2.8" ry="2.1" fill="#cf7a45" opacity="0.38" transform="rotate(-38 1049 40)"/><ellipse cx="874" cy="29" rx="4.3" ry="2.1" fill="#f0b27a" opacity="0.34" transform="rotate(-27 874 29)"/><ellipse cx="984" cy="22" rx="4.3" ry="2.9" fill="#5eead4" opacity="0.19" transform="rotate(-10 984 22)"/><ellipse cx="956" cy="32" rx="3.4" ry="1.9" fill="#f0b27a" opacity="0.48" transform="rotate(-10 956 32)"/><ellipse cx="1035" cy="49" rx="11.2" ry="5.4" fill="#5eead4" opacity="0.40" transform="rotate(16 1035 49)"/><ellipse cx="755" cy="39" rx="2.0" ry="1.3" fill="#f0b27a" opacity="0.19" transform="rotate(-4 755 39)"/><ellipse cx="1131" cy="54" rx="5.1" ry="3.0" fill="#e8915a" opacity="0.29" transform="rotate(35 1131 54)"/><ellipse cx="1070" cy="30" rx="7.5" ry="5.3" fill="#818cf8" opacity="0.28" transform="rotate(34 1070 30)"/><ellipse cx="1083" cy="31" rx="5.1" ry="3.1" fill="#f0b27a" opacity="0.26" transform="rotate(-37 1083 31)"/><ellipse cx="936" cy="37" rx="12.0" ry="5.0" fill="#5eead4" opacity="0.22" transform="rotate(-0 936 37)"/><ellipse cx="1146" cy="52" rx="7.6" ry="5.4" fill="#cf7a45" opacity="0.29" transform="rotate(5 1146 52)"/><ellipse cx="909" cy="14" rx="4.4" ry="2.9" fill="#cf7a45" opacity="0.30" transform="rotate(-33 909 14)"/><ellipse cx="757" cy="28" rx="2.8" ry="1.4" fill="#e8915a" opacity="0.20" transform="rotate(-35 757 28)"/><ellipse cx="966" cy="56" rx="12.8" ry="5.3" fill="#f0b27a" opacity="0.39" transform="rotate(-31 966 56)"/><ellipse cx="1146" cy="37" rx="13.6" ry="6.0" fill="#5eead4" opacity="0.21" transform="rotate(-5 1146 37)"/><ellipse cx="997" cy="69" rx="5.4" ry="2.9" fill="#cf7a45" opacity="0.35" transform="rotate(-31 997 69)"/><ellipse cx="1062" cy="28" rx="10.8" ry="5.7" fill="#cf7a45" opacity="0.22" transform="rotate(21 1062 28)"/><ellipse cx="1030" cy="42" rx="3.2" ry="1.9" fill="#f0b27a" opacity="0.20" transform="rotate(-11 1030 42)"/><ellipse cx="1176" cy="13" rx="9.9" ry="6.5" fill="#cf7a45" opacity="0.67" transform="rotate(36 1176 13)"/><ellipse cx="795" cy="34" rx="7.2" ry="3.2" fill="#cf7a45" opacity="0.25" transform="rotate(36 795 34)"/><ellipse cx="853" cy="38" rx="6.1" ry="3.0" fill="#cf7a45" opacity="0.36" transform="rotate(20 853 38)"/><ellipse cx="1084" cy="34" rx="8.8" ry="5.1" fill="#f6d9b0" opacity="0.37" transform="rotate(-20 1084 34)"/><ellipse cx="775" cy="29" rx="2.4" ry="1.2" fill="#f6d9b0" opacity="0.18" transform="rotate(-34 775 29)"/><ellipse cx="1064" cy="43" rx="7.5" ry="5.8" fill="#cf7a45" opacity="0.28" transform="rotate(-1 1064 43)"/><ellipse cx="1030" cy="74" rx="12.0" ry="4.9" fill="#f6d9b0" opacity="0.35" transform="rotate(23 1030 74)"/><ellipse cx="1122" cy="41" rx="7.6" ry="4.3" fill="#818cf8" opacity="0.61" transform="rotate(-36 1122 41)"/><ellipse cx="1072" cy="46" rx="6.3" ry="4.9" fill="#e8915a" opacity="0.31" transform="rotate(29 1072 46)"/><ellipse cx="902" cy="43" rx="4.7" ry="2.9" fill="#cf7a45" opacity="0.39" transform="rotate(-34 902 43)"/><ellipse cx="1122" cy="58" rx="8.4" ry="6.3" fill="#e8915a" opacity="0.68" transform="rotate(27 1122 58)"/><ellipse cx="1171" cy="74" rx="6.0" ry="3.2" fill="#cf7a45" opacity="0.66" transform="rotate(32 1171 74)"/><ellipse cx="853" cy="28" rx="2.4" ry="1.4" fill="#818cf8" opacity="0.21" transform="rotate(16 853 28)"/><ellipse cx="1098" cy="44" rx="6.4" ry="4.4" fill="#cf7a45" opacity="0.64" transform="rotate(6 1098 44)"/><ellipse cx="1031" cy="14" rx="6.4" ry="5.0" fill="#f6d9b0" opacity="0.35" transform="rotate(34 1031 14)"/><ellipse cx="1027" cy="57" rx="7.0" ry="5.4" fill="#f0b27a" opacity="0.44" transform="rotate(-21 1027 57)"/><ellipse cx="822" cy="42" rx="5.8" ry="3.8" fill="#f6d9b0" opacity="0.16" transform="rotate(-33 822 42)"/><ellipse cx="1073" cy="24" rx="6.9" ry="3.2" fill="#5eead4" opacity="0.26" transform="rotate(-8 1073 24)"/><ellipse cx="1078" cy="32" rx="5.6" ry="3.4" fill="#f0b27a" opacity="0.15" transform="rotate(10 1078 32)"/><ellipse cx="1039" cy="55" rx="5.7" ry="4.1" fill="#5eead4" opacity="0.54" transform="rotate(30 1039 55)"/><ellipse cx="961" cy="49" rx="5.5" ry="2.3" fill="#e8915a" opacity="0.25" transform="rotate(39 961 49)"/><ellipse cx="1122" cy="10" rx="12.1" ry="4.8" fill="#f0b27a" opacity="0.65" transform="rotate(-29 1122 10)"/><ellipse cx="819" cy="35" rx="3.1" ry="1.6" fill="#5eead4" opacity="0.20" transform="rotate(-23 819 35)"/><ellipse cx="949" cy="27" rx="5.4" ry="3.5" fill="#f0b27a" opacity="0.18" transform="rotate(-6 949 27)"/><ellipse cx="917" cy="14" rx="3.7" ry="1.6" fill="#e8915a" opacity="0.44" transform="rotate(-27 917 14)"/><ellipse cx="992" cy="33" rx="5.7" ry="2.3" fill="#e8915a" opacity="0.50" transform="rotate(4 992 33)"/><ellipse cx="1131" cy="14" rx="7.1" ry="5.0" fill="#cf7a45" opacity="0.17" transform="rotate(-11 1131 14)"/></g>
    <text x="34" y="47" font-family="ui-monospace, SFMono-Regular, Menlo, Consolas, monospace" font-size="16" fill="#5eead4" letter-spacing="2">06</text>
    <text x="80" y="49" font-family="ui-sans-serif, -apple-system, 'Segoe UI', Helvetica, Arial, sans-serif" font-size="29" font-weight="700" fill="#f8fafc">More</text>
  </g>
</svg>
