<svg xmlns="http://www.w3.org/2000/svg" viewBox="0 0 1200 76" width="1200" height="76" role="img" aria-label="Systems, graphics, and low-level">
  <defs>
    <linearGradient id="bg" x1="0" y1="0" x2="1" y2="1"><stop offset="0" stop-color="#060a15"/><stop offset="1" stop-color="#0e1733"/></linearGradient>
    <linearGradient id="bar" x1="0" y1="0" x2="0" y2="1"><stop offset="0" stop-color="#5eead4"/><stop offset="1" stop-color="#818cf8"/></linearGradient>
    <filter id="b" x="-10%" y="-40%" width="120%" height="180%"><feGaussianBlur stdDeviation="0.8"/></filter>
    <clipPath id="r"><rect width="1200" height="76" rx="14"/></clipPath>
  </defs>
  <g clip-path="url(#r)">
    <rect width="1200" height="76" fill="url(#bg)"/>
    <rect x="0" y="0" width="5" height="76" fill="url(#bar)"/>
    <g filter="url(#b)"><ellipse cx="817" cy="48" rx="2.4" ry="1.8" fill="#818cf8" opacity="0.29" transform="rotate(-23 817 48)"/><ellipse cx="839" cy="49" rx="4.6" ry="1.8" fill="#f6d9b0" opacity="0.19" transform="rotate(-38 839 49)"/><ellipse cx="897" cy="69" rx="6.6" ry="2.6" fill="#cf7a45" opacity="0.20" transform="rotate(35 897 69)"/><ellipse cx="1023" cy="65" rx="11.3" ry="4.9" fill="#f6d9b0" opacity="0.25" transform="rotate(14 1023 65)"/><ellipse cx="830" cy="57" rx="4.9" ry="3.1" fill="#f6d9b0" opacity="0.25" transform="rotate(33 830 57)"/><ellipse cx="1096" cy="41" rx="11.6" ry="4.8" fill="#cf7a45" opacity="0.34" transform="rotate(-37 1096 41)"/><ellipse cx="1108" cy="44" rx="6.1" ry="3.9" fill="#818cf8" opacity="0.60" transform="rotate(13 1108 44)"/><ellipse cx="859" cy="27" rx="4.4" ry="1.9" fill="#cf7a45" opacity="0.32" transform="rotate(3 859 27)"/><ellipse cx="1164" cy="39" rx="12.2" ry="7.2" fill="#e8915a" opacity="0.59" transform="rotate(-8 1164 39)"/><ellipse cx="1015" cy="44" rx="11.9" ry="5.3" fill="#f6d9b0" opacity="0.23" transform="rotate(23 1015 44)"/><ellipse cx="1041" cy="48" rx="9.8" ry="3.9" fill="#818cf8" opacity="0.25" transform="rotate(37 1041 48)"/><ellipse cx="712" cy="45" rx="3.5" ry="1.8" fill="#818cf8" opacity="0.16" transform="rotate(28 712 45)"/><ellipse cx="1024" cy="59" rx="8.1" ry="3.8" fill="#f0b27a" opacity="0.24" transform="rotate(-24 1024 59)"/><ellipse cx="809" cy="31" rx="3.4" ry="1.6" fill="#5eead4" opacity="0.30" transform="rotate(9 809 31)"/><ellipse cx="994" cy="53" rx="4.8" ry="2.5" fill="#f0b27a" opacity="0.32" transform="rotate(-14 994 53)"/><ellipse cx="1017" cy="61" rx="14.2" ry="5.5" fill="#e8915a" opacity="0.31" transform="rotate(21 1017 61)"/><ellipse cx="1135" cy="51" rx="9.6" ry="4.8" fill="#f6d9b0" opacity="0.36" transform="rotate(-33 1135 51)"/><ellipse cx="944" cy="42" rx="6.9" ry="5.2" fill="#818cf8" opacity="0.25" transform="rotate(28 944 42)"/><ellipse cx="1168" cy="60" rx="10.8" ry="4.4" fill="#cf7a45" opacity="0.33" transform="rotate(26 1168 60)"/><ellipse cx="1062" cy="60" rx="4.8" ry="2.1" fill="#f6d9b0" opacity="0.42" transform="rotate(39 1062 60)"/><ellipse cx="1001" cy="38" rx="7.2" ry="5.7" fill="#e8915a" opacity="0.47" transform="rotate(-1 1001 38)"/><ellipse cx="948" cy="45" rx="4.6" ry="3.1" fill="#f0b27a" opacity="0.47" transform="rotate(22 948 45)"/><ellipse cx="1118" cy="26" rx="5.2" ry="3.1" fill="#f6d9b0" opacity="0.21" transform="rotate(-10 1118 26)"/><ellipse cx="773" cy="23" rx="2.3" ry="1.6" fill="#5eead4" opacity="0.24" transform="rotate(-8 773 23)"/><ellipse cx="1130" cy="60" rx="7.3" ry="3.1" fill="#818cf8" opacity="0.47" transform="rotate(-24 1130 60)"/><ellipse cx="747" cy="35" rx="5.6" ry="3.0" fill="#5eead4" opacity="0.18" transform="rotate(-17 747 35)"/><ellipse cx="1045" cy="-1" rx="7.6" ry="6.1" fill="#5eead4" opacity="0.54" transform="rotate(23 1045 -1)"/><ellipse cx="1074" cy="34" rx="11.2" ry="4.7" fill="#cf7a45" opacity="0.31" transform="rotate(3 1074 34)"/><ellipse cx="961" cy="37" rx="3.8" ry="3.1" fill="#f6d9b0" opacity="0.26" transform="rotate(-30 961 37)"/><ellipse cx="934" cy="37" rx="5.3" ry="2.5" fill="#5eead4" opacity="0.46" transform="rotate(-18 934 37)"/><ellipse cx="969" cy="3" rx="7.7" ry="3.4" fill="#5eead4" opacity="0.39" transform="rotate(21 969 3)"/><ellipse cx="898" cy="42" rx="6.3" ry="3.0" fill="#818cf8" opacity="0.22" transform="rotate(-10 898 42)"/><ellipse cx="1018" cy="22" rx="6.7" ry="3.4" fill="#5eead4" opacity="0.24" transform="rotate(-32 1018 22)"/><ellipse cx="990" cy="46" rx="5.3" ry="2.6" fill="#cf7a45" opacity="0.25" transform="rotate(7 990 46)"/><ellipse cx="889" cy="56" rx="6.6" ry="3.4" fill="#cf7a45" opacity="0.40" transform="rotate(23 889 56)"/><ellipse cx="1139" cy="32" rx="9.5" ry="4.1" fill="#818cf8" opacity="0.33" transform="rotate(11 1139 32)"/><ellipse cx="1053" cy="69" rx="5.9" ry="3.3" fill="#f0b27a" opacity="0.26" transform="rotate(32 1053 69)"/><ellipse cx="970" cy="50" rx="9.9" ry="4.7" fill="#f0b27a" opacity="0.41" transform="rotate(-16 970 50)"/><ellipse cx="1062" cy="43" rx="6.7" ry="2.7" fill="#5eead4" opacity="0.58" transform="rotate(-8 1062 43)"/><ellipse cx="808" cy="31" rx="3.1" ry="1.6" fill="#f0b27a" opacity="0.18" transform="rotate(27 808 31)"/><ellipse cx="746" cy="37" rx="4.8" ry="3.0" fill="#f6d9b0" opacity="0.22" transform="rotate(2 746 37)"/><ellipse cx="1126" cy="40" rx="9.7" ry="4.5" fill="#818cf8" opacity="0.30" transform="rotate(-11 1126 40)"/><ellipse cx="1036" cy="41" rx="6.4" ry="4.9" fill="#5eead4" opacity="0.16" transform="rotate(11 1036 41)"/><ellipse cx="774" cy="34" rx="4.2" ry="3.0" fill="#818cf8" opacity="0.22" transform="rotate(38 774 34)"/><ellipse cx="672" cy="38" rx="4.6" ry="1.8" fill="#5eead4" opacity="0.16" transform="rotate(38 672 38)"/><ellipse cx="1094" cy="41" rx="5.1" ry="3.1" fill="#5eead4" opacity="0.53" transform="rotate(28 1094 41)"/></g>
    <text x="34" y="47" font-family="ui-monospace, SFMono-Regular, Menlo, Consolas, monospace" font-size="16" fill="#5eead4" letter-spacing="2">04</text>
    <text x="80" y="49" font-family="ui-sans-serif, -apple-system, 'Segoe UI', Helvetica, Arial, sans-serif" font-size="29" font-weight="700" fill="#f8fafc">Systems, graphics, and low-level</text>
  </g>
</svg>
